<svg width="13" height="14" viewBox="0 0 13 14" fill="none" xmlns="http://www.w3.org/2000/svg">
<path d="M10.875 1.875H10.25V1.25C10.25 0.90625 9.96875 0.625 9.625 0.625C9.28125 0.625 9 0.90625 9 1.25V1.875H4V1.25C4 0.90625 3.71875 0.625 3.375 0.625C3.03125 0.625 2.75 0.90625 2.75 1.25V1.875H2.125C1.43125 1.875 0.88125 2.4375 0.88125 3.125L0.875 11.875C0.875 12.5625 1.43125 13.125 2.125 13.125H10.875C11.5625 13.125 12.125 12.5625 12.125 11.875V3.125C12.125 2.4375 11.5625 1.875 10.875 1.875ZM10.25 11.875H2.75C2.40625 11.875 2.125 11.5938 2.125 11.25V5H10.875V11.25C10.875 11.5938 10.5938 11.875 10.25 11.875ZM4 6.25H5.875C6.21875 6.25 6.5 6.53125 6.5 6.875V8.75C6.5 9.09375 6.21875 9.375 5.875 9.375H4C3.65625 9.375 3.375 9.09375 3.375 8.75V6.875C3.375 6.53125 3.65625 6.25 4 6.25Z" fill="#D3D3D3"/>
</svg>
