<svg width="259" height="15" viewBox="0 0 259 15" fill="none" xmlns="http://www.w3.org/2000/svg">
<circle cx="6.5" cy="7.5" r="6" fill="white" stroke="#223E7C"/>
<circle cx="252.5" cy="7.5" r="6" fill="white" stroke="#223E7C"/>
<line x1="15" y1="7.5" x2="244" y2="7.5" stroke="#BABABA" stroke-dasharray="4 4"/>
<path d="M128.438 1.575L131.375 6.5625H134.812C135.331 6.5625 135.75 6.98125 135.75 7.5C135.75 8.01875 135.331 8.4375 134.812 8.4375H131.375L128.438 13.425C128.325 13.625 128.106 13.75 127.875 13.75C127.438 13.75 127.125 13.3313 127.244 12.9125L128.556 8.4375H125.125L124.281 9.85C124.225 9.94375 124.119 10 124.012 10H123.7H123.65C123.444 10 123.294 9.80625 123.344 9.6125L123.8 7.7875L123.875 7.5L123.819 7.2625L123.75 7L123.45 5.8125L123.344 5.39375C123.294 5.19375 123.444 5.00625 123.65 5.00625H123.881H124.012C124.125 5.00625 124.225 5.0625 124.281 5.15625L125.125 6.5625L128.562 6.5625L127.25 2.0875C127.125 1.66875 127.438 1.25 127.875 1.25C128.106 1.25 128.325 1.375 128.438 1.575Z" fill="#223E7C"/>
</svg>
