<svg width="133" height="15" viewBox="0 0 133 15" fill="none" xmlns="http://www.w3.org/2000/svg">
<line x1="7" y1="7.5" x2="127" y2="7.5" stroke="#F7F7F9"/>
<circle cx="4" cy="8" r="3.5" stroke="#72737F"/>
<circle cx="129" cy="8" r="3.5" fill="white" stroke="#72737F"/>
<rect width="15" height="15" transform="matrix(0 -1 -1 0 75 15)" fill="white"/>
<path d="M66.4375 1.575L69.375 6.5625H72.8125C73.3312 6.5625 73.75 6.98125 73.75 7.5C73.75 8.01875 73.3312 8.4375 72.8125 8.4375H69.375L66.4375 13.425C66.325 13.625 66.1062 13.75 65.875 13.75C65.4375 13.75 65.125 13.3313 65.2438 12.9125L66.5562 8.4375H63.125L62.2812 9.85C62.225 9.94375 62.1187 10 62.0125 10H61.7H61.65C61.4437 10 61.2937 9.80625 61.3438 9.6125L61.8 7.7875L61.875 7.5L61.8188 7.2625L61.75 7L61.45 5.8125L61.3438 5.39375C61.2937 5.19375 61.4437 5.00625 61.65 5.00625H61.8813H62.0125C62.125 5.00625 62.225 5.0625 62.2812 5.15625L63.125 6.5625L66.5625 6.5625L65.25 2.0875C65.125 1.66875 65.4375 1.25 65.875 1.25C66.1062 1.25 66.325 1.375 66.4375 1.575Z" fill="#223E7C"/>
</svg>
