<svg width="13" height="13" viewBox="0 0 13 13" fill="none" xmlns="http://www.w3.org/2000/svg">
<path d="M11.8125 10.875H1.1875C0.84375 10.875 0.5625 11.1563 0.5625 11.5C0.5625 11.8438 0.84375 12.125 1.1875 12.125H11.8125C12.1562 12.125 12.4375 11.8438 12.4375 11.5C12.4375 11.1563 12.1562 10.875 11.8125 10.875ZM1.19375 6.25626L11.0875 8.90626C11.5875 9.03751 12.1 8.74376 12.2375 8.24376C12.3688 7.74376 12.075 7.23126 11.575 7.09376L8.25625 6.20626L6.64375 0.925007C6.575 0.700007 6.4 0.531257 6.175 0.468757C5.75 0.356257 5.33125 0.675007 5.33125 1.11876V5.41876L2.21875 4.59376L1.75 3.43126C1.675 3.25001 1.525 3.11251 1.33125 3.06251L1.125 3.00626C0.925 2.95001 0.73125 3.10001 0.73125 3.30626V5.65001C0.73125 5.93751 0.91875 6.18126 1.19375 6.25626Z" fill="#D3D3D3"/>
</svg>
